<?xml version="1.0" encoding="UTF-8"?>
<svg id="Layer_1" data-name="Layer 1" xmlns="http://www.w3.org/2000/svg" viewBox="0 0 600 600">
  <defs>
    <style>
      .cls-1 {
        fill: #f0efef;
      }
    </style>
  </defs>
  <path class="cls-1" d="M233.67,326.36l59.86.08-12.18,19.35-50.82-.23c-11.58-.05-22.38-6.61-29.36-15.68-12.81-16.67-13.34-39.71-1.81-57.21,6.78-10.29,17.9-18.12,30.39-18.2l51.29-.31,10.35,18.54-58.57.07c-7.33,1.03-13.5,5.06-17.2,11.51-5.25,9.16-5.36,20.72-.23,29.93,3.83,6.87,10.2,11.22,18.27,12.14Z"/>
  <path class="cls-1" d="M135.57,276.75l-14.32,23.76-25.64,43.07c-.98,1.11-2.13,2.17-3.71,2.16l-22.19-.09,53.3-84.54c8.24-9.18,25.17-9.51,31.75,1.65l48.85,82.84-18.92.17c-1.81.02-3.26-.72-4.44-2.14l-39.67-66.63c-.65-1.1-1.12-1.76-2.03-1.95-1.25-.25-2.18.36-2.98,1.69Z"/>
  <path class="cls-1" d="M400.22,254.44c7.09-.46,13.7-.18,20.6-.1-5.54,3.9-9.47,7.84-12.72,13.48l-38.34,66.67c-4.01,6.98-9.32,11.58-17.94,11.43-6-.11-12.88-2.35-16.11-8.17l-34.45-62.18-11.78-21.31,18.89-.12c2.68-.02,4.88,1.01,6.5,3.2l34.38,65.67c.6,1.15,1.02,1.99,2.12,2.26,1.18.29,2.02-.41,2.77-1.7l36.8-63.14c2.49-2.9,5.17-5.73,9.27-5.99Z"/>
  <ellipse class="cls-1" cx="138.25" cy="330.63" rx="13.52" ry="13.51"/>
  <path class="cls-1" d="M442.53,272.82l33.01-.16h0s43.19,0,43.19,0l11.55-18.51h-58.85v.09l-24.9-.16c-11.51-.07-22.29,3.77-29.41,12.88-3.75,4.8-5.75,10.21-5.93,16.31-.26,9.23,4.61,17.16,12.88,21.28,5.16,2.57,10.72,4.23,16.73,4.28l38.18.33c3,.03,5.74,2.1,6.9,3.83,1.65,2.47,1.97,5.53.63,8.08-1.55,2.93-4.82,5.25-8.55,5.26l-84.87.12-12.73,19.39,99.65-.36c15.25-.06,26.65-13.16,27.6-27.17,1.19-17.42-12.91-27.78-28.8-27.84l-35.91-.12c-2.93-.01-5.62-.85-7.95-2.47-3.52-2.46-4.25-7.08-1.59-10.52,2.12-2.73,5.49-4.52,9.17-4.53Z"/>
  <path class="cls-1" d="M519.33,344.96c-1.11-.64-1.98-1.52-2.61-2.63-.64-1.11-.96-2.33-.96-3.67s.32-2.55.96-3.66,1.51-1.99,2.62-2.63c1.11-.64,2.35-.97,3.71-.97s2.59.32,3.7.95c1.1.63,1.97,1.5,2.6,2.6.63,1.1.95,2.33.95,3.68s-.32,2.58-.97,3.7c-.65,1.12-1.52,2-2.63,2.64s-2.34.97-3.69.97-2.57-.32-3.67-.97ZM526.1,343.97c.93-.55,1.66-1.29,2.19-2.23s.8-1.98.8-3.12-.26-2.17-.78-3.1-1.24-1.66-2.16-2.19c-.92-.54-1.96-.8-3.11-.8s-2.2.27-3.13.81c-.93.54-1.66,1.28-2.19,2.21-.53.93-.79,1.97-.79,3.11s.26,2.18.79,3.11c.53.93,1.26,1.67,2.18,2.21.93.54,1.96.81,3.1.81s2.17-.28,3.1-.82ZM520.99,342.32c-.66-.36-1.17-.85-1.54-1.49s-.56-1.36-.56-2.17.19-1.53.56-2.17.88-1.14,1.54-1.49c.66-.36,1.41-.54,2.24-.54.77,0,1.45.16,2.05.48.6.32,1.06.76,1.39,1.31l-1.5.99c-.42-.69-1.08-1.03-1.96-1.03-.67,0-1.23.22-1.68.67-.45.45-.67,1.04-.67,1.78s.22,1.34.67,1.78c.44.45,1.01.67,1.68.67.88,0,1.53-.34,1.96-1.03l1.5.95c-.33.58-.79,1.03-1.39,1.35-.6.32-1.28.48-2.05.48-.84,0-1.58-.18-2.24-.54Z"/>
</svg>